# xmcd
#
# Track frame offsets: 
#        150
#        18835
#        39070
#        69973
#        86276
#        101420
#        117839
#        134891
#        151959
#        170698
#        191993
#        210055
#        228197
#        256615
#        279175
#        291444
#        314675
#
# Disc length: 4490 seconds
#
# Revision: 0
# Processed by: cddbd v1.5.2PL0 Copyright (c) Steve Scherf et al.
# Submitted via: ExactAudioCopy v1.0b3
#
DISCID=dd118811
DTITLE=Hans Theessink - Birthday Bash [CD2]
DYEAR=2009
DGENRE=Blues
TTITLE0=Catch The Wind
TTITLE1=The Blues Done Have A Baby (Feat. Donovan)
TTITLE2=I Wish I Had Someone To Love Me (Feat. Barney McKenna, The Dub
TTITLE2=liners)
TTITLE3=Sail Away (Feat. Hans Theessink, The Dubliners)
TTITLE4=Slap Tap (Feat. Manfred Chromy, Michael Seida)
TTITLE5=Ois Von Mir (Feat. Texas Schrammeln)
TTITLE6=Herzverbunden (Feat. Schiffkowitz, Insingizi)
TTITLE7=Gö, Du Bleibst Heut Nacht Bei Mir (Feat. Schiffkowitz, Hans Th
TTITLE7=eessink)
TTITLE8=Colours (Feat. Donovan, Schiffkowitz, Hans Theessink)
TTITLE9=Katrina (Feat. Hans Theessink and Cast)
TTITLE10=No Expectations (Feat. Jack Clement and Cast)
TTITLE11=Sail Away (Feat. Lukas Resetarits)
TTITLE12=You Got To Move (Feat. Erik Trauner and Cast)
TTITLE13=See You Later Alligator (Feat. Nall and Cast)
TTITLE14=Whiskey In The Jar (Feat. The Dubliners and Cast)
TTITLE15=Will The Circle Be Unbroken (Feat. Hans Theessink, Terry Evan
TTITLE15=s, Donovan, Sean Cannon and Cast)
TTITLE16=May The Road (Feat. Hans Theessink, Vusa Ndlovu and Cast)
EXTD=
EXTT0=
EXTT1=
EXTT2=
EXTT3=
EXTT4=
EXTT5=
EXTT6=
EXTT7=
EXTT8=
EXTT9=
EXTT10=
EXTT11=
EXTT12=
EXTT13=
EXTT14=
EXTT15=
EXTT16=
PLAYORDER=
